<svg xmlns="http://www.w3.org/2000/svg" version="1.1" id="Layer_1" x="0" y="0" xml:space="preserve" width="1200" height="800" viewBox="-34.38 -4.575 297.96 27.45"><style type="text/css" id="style764">.st0{fill:#231f20}</style><g id="g780" transform="translate(-.2 -.3)"><path class="st0" id="polygon766" d="M5.6 18.3V4.1H.2V.6h14.7v3.5H9.5v14.2z"/><path class="st0" d="M41.8 3.8c-2.7 0-4.4 2-4.4 5.6 0 3.6 1.9 5.6 4.5 5.6 2.7 0 4.4-2 4.4-5.6 0-3.5-1.8-5.6-4.5-5.6m0 14.8c-5 0-8.4-3.4-8.4-9.1 0-5.7 3.5-9.2 8.5-9.2s8.4 3.4 8.4 9.1c0 5.7-3.5 9.2-8.5 9.2" id="path768"/><path class="st0" d="M79.1 4h-4.4v4.6h4.4c1.8 0 2.7-.8 2.7-2.3.1-1.6-1-2.3-2.7-2.3m-.1 8h-4.2v6.3H71V.6h8.3c3.6 0 6.6 1.8 6.6 5.6 0 4.1-3 5.8-6.9 5.8" id="path770"/><path class="st0" d="M112.5 18.6c-3.2 0-6-1.2-7.4-3.2l2.8-2.3c1.3 1.4 3.1 2 4.9 2 2.3 0 3.3-.6 3.3-1.9 0-1.1-.7-1.6-4.3-2.4-3.5-.8-6-1.8-6-5.3 0-3.2 3.1-5.2 6.8-5.2 3 0 5.2 1 7 2.8l-2.8 2.5c-1.2-1.2-2.6-1.8-4.3-1.8-2 0-2.7.8-2.7 1.6 0 1.1.8 1.5 3.8 2.1 3 .7 6.4 1.6 6.4 5.5 0 3.3-2.3 5.6-7.5 5.6" id="path772"/><path class="st0" id="polygon774" d="M144.7 10.9v7.4h-3.8V.6h3.8v6.8h7.8V.6h3.8v17.7h-3.8v-7.4z"/><path class="st0" d="M185.4 3.8c-2.7 0-4.4 2-4.4 5.6 0 3.6 1.9 5.6 4.5 5.6 2.7 0 4.4-2 4.4-5.6 0-3.5-1.9-5.6-4.5-5.6m0 14.8c-5 0-8.4-3.4-8.4-9.1 0-5.7 3.5-9.2 8.5-9.2s8.4 3.4 8.4 9.1c-.1 5.7-3.5 9.2-8.5 9.2" id="path776"/><path class="st0" d="M222.7 4h-4.4v4.6h4.4c1.8 0 2.7-.8 2.7-2.3.1-1.6-1-2.3-2.7-2.3m-.2 8h-4.2v6.3h-3.8V.6h8.3c3.6 0 6.6 1.8 6.6 5.6 0 4.1-2.9 5.8-6.9 5.8" id="path778"/></g></svg>